<?xml version="1.0" encoding="UTF-8" standalone="no"?>
<!-- Created with Inkscape (http://www.inkscape.org/) -->

<svg
   xmlns:dc="http://purl.org/dc/elements/1.1/"
   xmlns:cc="http://creativecommons.org/ns#"
   xmlns:rdf="http://www.w3.org/1999/02/22-rdf-syntax-ns#"
   xmlns:svg="http://www.w3.org/2000/svg"
   xmlns="http://www.w3.org/2000/svg"
   xmlns:xlink="http://www.w3.org/1999/xlink"
   xmlns:sodipodi="http://sodipodi.sourceforge.net/DTD/sodipodi-0.dtd"
   xmlns:inkscape="http://www.inkscape.org/namespaces/inkscape"
   width="1440"
   height="1440"
   viewBox="0 0 1440 1440"
   id="svg2"
   version="1.1"
   inkscape:version="0.91 r13725"
   sodipodi:docname="icon.svg"
   inkscape:export-filename="/Users/samcrow/Desktop/JasperRidge/icon-high.png"
   inkscape:export-xdpi="32"
   inkscape:export-ydpi="32">
  <defs
     id="defs4">
    <filter
       style="color-interpolation-filters:sRGB;"
       inkscape:label="Drop Shadow"
       id="filter4274">
      <feFlood
         flood-opacity="0.2"
         flood-color="rgb(0,0,0)"
         result="flood"
         id="feFlood4276" />
      <feComposite
         in="flood"
         in2="SourceGraphic"
         operator="in"
         result="composite1"
         id="feComposite4278" />
      <feGaussianBlur
         in="composite1"
         stdDeviation="50"
         result="blur"
         id="feGaussianBlur4280" />
      <feOffset
         dx="0"
         dy="50"
         result="offset"
         id="feOffset4282" />
      <feComposite
         in="SourceGraphic"
         in2="offset"
         operator="over"
         result="composite2"
         id="feComposite4284" />
    </filter>
  </defs>
  <sodipodi:namedview
     id="base"
     pagecolor="#ffffff"
     bordercolor="#666666"
     borderopacity="1.0"
     inkscape:pageopacity="0.0"
     inkscape:pageshadow="2"
     inkscape:zoom="0.5"
     inkscape:cx="720"
     inkscape:cy="753.13709"
     inkscape:document-units="px"
     inkscape:current-layer="layer3"
     showgrid="false"
     units="px"
     inkscape:window-width="1680"
     inkscape:window-height="1002"
     inkscape:window-x="0"
     inkscape:window-y="0"
     inkscape:window-maximized="1"
     showguides="true"
     inkscape:guide-bbox="true">
    <sodipodi:guide
       position="30,1397.1429"
       orientation="1,0"
       id="guide4226" />
    <sodipodi:guide
       position="1410,1124.2857"
       orientation="1,0"
       id="guide4228" />
    <sodipodi:guide
       position="1410,1410"
       orientation="0,1"
       id="guide4230" />
    <sodipodi:guide
       position="1291.4286,30"
       orientation="0,1"
       id="guide4232" />
  </sodipodi:namedview>
  <metadata
     id="metadata7">
    <rdf:RDF>
      <cc:Work
         rdf:about="">
        <dc:format>image/svg+xml</dc:format>
        <dc:type
           rdf:resource="http://purl.org/dc/dcmitype/StillImage" />
        <dc:title></dc:title>
      </cc:Work>
    </rdf:RDF>
  </metadata>
  <g
     inkscape:label="Outline bitmap"
     inkscape:groupmode="layer"
     id="layer1"
     transform="translate(0,387.63784)"
     style="display:none"
     sodipodi:insensitive="true">
    <path
       style="fill:#000000"
       d=""
       id="path4234"
       inkscape:connector-curvature="0" />
    <image
       sodipodi:absref="/Users/samcrow/Desktop/JasperRidge/JRBPSurvey/graphics/preserve-outline.png"
       xlink:href="preserve-outline.png"
       width="1210.2616"
       height="787.67859"
       preserveAspectRatio="none"
       style="image-rendering:optimizeQuality"
       id="image4223"
       x="156.88127"
       y="-72.905708" />
  </g>
  <g
     inkscape:groupmode="layer"
     id="layer2"
     inkscape:label="Outline"
     style="display:inline">
    <path
       style="display:inline;fill:#8bc34a;fill-opacity:1;filter:url(#filter4274)"
       d="m 619.78137,707.14309 c -0.54098,-1.42286 -0.98359,-3.69827 -0.98359,-5.05644 0,-1.35818 -0.41874,-3.25748 -0.93053,-4.22069 -1.02353,-1.92632 -4.44054,-13.28514 -6.13966,-20.40948 -0.59532,-2.49616 -1.48264,-5.44617 -1.97181,-6.55558 -0.48918,-1.10941 -1.64579,-4.74019 -2.57025,-8.06841 -0.92446,-3.32822 -2.35295,-8.09363 -3.17443,-10.58979 -0.82149,-2.49617 -2.82387,-9.53081 -4.44973,-15.63255 -1.62587,-6.10173 -3.36278,-11.80816 -3.85981,-12.68095 -0.49702,-0.87278 -1.89427,-5.11715 -3.10501,-9.43195 l -2.20133,-7.84507 2.85508,-4.3475 c 1.57029,-2.39113 4.58308,-6.93289 6.69508,-10.09281 2.112,-3.15992 3.70047,-5.84519 3.52993,-5.96726 -0.85288,-0.61045 -14.10819,-4.56656 -18.96827,-5.66116 -3.05087,-0.68711 -5.77396,-1.53132 -6.05131,-1.87601 -0.49512,-0.61532 -8.19522,-2.83413 -13.06267,-3.76406 -1.36008,-0.25984 -4.98534,-1.32064 -8.05612,-2.35733 -6.60588,-2.23012 -5.99808,-2.57896 -14.90336,8.55378 -3.54974,4.43763 -7.10405,8.86265 -7.89849,9.83338 -0.79443,0.97073 -1.13291,1.76496 -0.75219,1.76496 2.09157,0 -10.54199,11.06849 -13.10311,11.47989 -1.58418,0.25446 -5.51679,2.56889 -4.43344,2.60916 0.45381,0.0169 -0.14441,1.39221 -1.32936,3.05632 -1.18494,1.66411 -1.78317,3.0709 -1.32936,3.12619 0.4538,0.0553 -0.27278,0.40746 -1.61463,0.78261 -1.48416,0.41492 -2.49966,1.49567 -2.59275,2.75932 -0.17465,2.37066 -6.34581,10.46937 -7.99535,10.4927 -0.60054,0.008 -0.41113,0.45539 0.42093,0.99311 1.21623,0.78599 1.05461,0.98069 -0.82438,0.99311 -1.8757,0.0124 -2.21079,0.41375 -1.697,2.03254 0.46107,1.45271 0.18123,2.0171 -1.00011,2.0171 -0.99556,0 -1.35367,-0.46379 -0.91107,-1.17994 0.49719,-0.80447 0.16895,-0.96493 -1.03151,-0.50428 -0.96842,0.37162 -2.06403,0.68262 -2.4347,0.69111 -0.37065,0.008 -0.007,0.437 0.80729,0.95223 1.58921,1.00509 -0.0485,1.15802 -11.56672,1.08009 -4.21038,-0.0285 -5.59674,0.25276 -4.55707,0.92447 1.03259,0.66716 -0.26019,0.90245 -4.18447,0.76156 -3.12328,-0.11212 -5.15724,-0.55287 -4.5199,-0.97943 0.82045,-0.54912 0.64804,-1.16722 -0.59047,-2.11683 -0.96211,-0.73769 -1.57048,-1.5233 -1.35193,-1.7458 0.21854,-0.2225 0.002,-5.85073 -0.48044,-12.50717 -0.48278,-6.65644 -1.80663,-27.30653 -2.94187,-45.88909 -1.13525,-18.58255 -2.52712,-37.19033 -3.09306,-41.3506 -0.56593,-4.16027 -1.67991,-17.4937 -2.47552,-29.62983 -0.7956,-12.13613 -1.6561,-22.27523 -1.91221,-22.53136 -0.44655,-0.44653 -11.95656,8.88073 -16.34807,13.24785 -2.84799,2.83215 -11.16728,9.89704 -15.76001,13.38366 -2.05556,1.5605 -3.75392,3.32816 -3.77414,3.92811 -0.0523,1.55289 -4.02953,14.74876 -4.9908,16.55881 -0.44187,0.83206 -2.79838,1.80879 -5.23668,2.17051 -5.20776,0.77258 -12.67021,2.669 -15.52733,3.94593 -1.10941,0.49583 -6.26215,1.76333 -11.45054,2.81668 l -9.43343,1.91516 -6.52356,-4.37453 c -3.58798,-2.40599 -8.28506,-5.15169 -10.43798,-6.10155 -2.15292,-0.94988 -3.69613,-2.0802 -3.42936,-2.51184 1.89818,-3.07133 -8.77996,-3.48608 -14.62898,-0.5682 -1.69185,0.84401 -4.43701,1.83347 -6.10034,2.1988 -1.66334,0.36532 -3.28315,1.08316 -3.5996,1.59519 -0.31646,0.51202 -1.63132,0.93096 -2.92194,0.93096 -1.29061,0 -3.64653,0.67797 -5.23537,1.50661 -1.58884,0.82864 -3.65625,1.50941 -4.59424,1.51283 -0.93799,0.003 -1.94746,0.3978 -2.24326,0.87642 -0.2958,0.47861 -2.70529,1.4563 -5.35442,2.17264 -11.67418,3.15677 -15.86409,5.8089 -19.79612,12.53059 -2.02327,3.45874 -3.67868,7.03179 -3.67868,7.94011 0,0.90831 -0.82848,3.01382 -1.84109,4.67891 l -1.84108,3.02742 -1.87444,-3.75946 c -1.03094,-2.06771 -1.9234,-3.98639 -1.98326,-4.26374 -0.13389,-0.62052 -3.61548,-6.97048 -5.03593,-9.18489 -4.70535,-7.33542 -6.84011,-9.86601 -10.23731,-12.13553 -7.60281,-5.07912 -21.13975,-13.66741 -27.61446,-17.51955 -3.60557,-2.14514 -6.7825,-4.17669 -7.05986,-4.51456 -0.27735,-0.33786 -2.77351,-1.90513 -5.54703,-3.48281 -5.79697,-3.29753 -15.49897,-10.8379 -21.56361,-16.75918 -1.45289,-1.41855 -5.03541,-4.53357 -7.96116,-6.92228 -3.53046,-2.88242 -6.18388,-6.17015 -7.88951,-9.77558 -1.41349,-2.98787 -3.03943,-5.43248 -3.61319,-5.43248 -0.57377,0 -0.76487,-0.72535 -0.42468,-1.61189 0.6302,-1.64225 -1.79017,-10.02964 -3.48283,-12.06916 -0.51288,-0.61798 -2.10048,-4.70157 -3.52798,-9.07462 -1.42751,-4.37305 -3.01056,-8.45115 -3.51788,-9.06244 -0.88614,-1.06773 -1.41425,-10.7859 -2.448,-45.04741 -0.45861,-15.19974 -0.39212,-15.90845 1.62519,-17.32143 1.15686,-0.8103 2.68789,-1.24897 3.40229,-0.97482 0.71441,0.27414 3.49886,-0.39755 6.18767,-1.49266 2.68881,-1.0951 5.61591,-2.22136 6.50467,-2.50279 1.14841,-0.36363 2.14494,-3.32204 3.44433,-10.22516 2.1819,-11.59154 2.51571,-11.90675 7.33104,-6.92264 2.06004,2.13224 11.68786,12.06548 21.39517,22.07388 9.70731,10.00839 18.38675,19.76044 19.28766,21.67122 0.9009,1.91079 2.46003,5.4367 3.46472,7.83536 1.35809,3.24237 2.8784,4.89327 5.92613,6.43515 2.25468,1.14066 5.34936,2.9546 6.87709,4.03098 2.6624,1.87582 2.80235,1.88082 3.37233,0.12043 0.32705,-1.01013 0.97569,-2.97122 1.44141,-4.35798 0.85432,-2.54388 4.5166,-19.78593 5.54568,-26.1091 0.30583,-1.87919 1.00492,-4.25541 1.55352,-5.28048 0.5486,-1.02508 1.40624,-3.79912 1.90586,-6.16453 0.49961,-2.36543 1.88559,-7.70463 3.07993,-11.86491 12.97368,-45.19132 13.35803,-63.08405 2.09064,-97.3252 -1.09518,-3.32822 -2.49203,-8.09362 -3.10411,-10.58979 -0.61209,-2.49616 -1.38717,-5.21925 -1.72242,-6.05131 -0.33526,-0.83205 -0.7959,-2.63613 -1.02366,-4.00907 -0.22777,-1.37293 -0.78807,-2.9614 -1.24512,-3.52993 -0.77535,-0.96446 -4.64757,-13.51634 -5.64457,-18.29698 -0.2449,-1.17428 -1.12585,-3.76393 -1.95768,-5.75478 -4.60038,-11.01024 -4.3887,-47.68927 0.32696,-56.65748 0.87503,-1.66411 1.49764,-3.36604 1.38359,-3.78206 -0.11404,-0.41603 0.14864,-0.75642 0.58374,-0.75642 0.43511,0 1.6477,-1.475 2.69465,-3.27779 1.04695,-1.80279 2.51589,-3.64607 3.26432,-4.09619 0.74842,-0.45012 1.09751,-1.24435 0.77577,-1.76497 -0.32176,-0.52061 -0.11604,-0.94656 0.45715,-0.94656 0.5732,0 1.76635,-1.40039 2.65144,-3.11198 1.69923,-3.28593 6.41206,-8.14661 11.16185,-11.51202 1.56578,-1.1094 4.45027,-3.42131 6.40998,-5.13757 1.95971,-1.71626 4.37285,-3.55837 5.36252,-4.09358 2.56264,-1.38584 23.765,-19.86204 23.84888,-20.782426 0.0383,-0.42108 1.41596,-2.174245 3.0613,-3.895933 1.64533,-1.721688 3.57387,-4.445977 4.28563,-6.05397 0.71178,-1.607994 2.08868,-3.175808 3.0598,-3.484031 0.97111,-0.308213 1.76566,-1.121559 1.76566,-1.807415 0,-0.685865 1.58847,-2.786627 3.52993,-4.668362 1.94146,-1.881735 3.52993,-3.790559 3.52993,-4.241826 0,-0.451256 3.06347,-4.742632 6.80772,-9.536377 3.74425,-4.793745 6.71595,-9.035823 6.60379,-9.426838 -0.11216,-0.391016 0.83216,-1.26544 2.09847,-1.943156 1.26633,-0.677716 3.07233,-2.535579 4.01335,-4.128586 0.94101,-1.593017 3.03108,-4.30963 4.64459,-6.036926 6.0765,-6.505015 7.93114,-8.771088 13.60794,-16.626685 3.20682,-4.437625 6.34971,-8.522258 6.9842,-9.076961 0.6345,-0.554704 1.70695,-2.25945 2.38324,-3.788325 0.67629,-1.528875 1.57845,-2.663495 2.00481,-2.521378 0.42634,0.142117 0.85506,-0.177733 0.95268,-0.71078 0.0976,-0.533046 0.95997,-1.243646 1.91631,-1.579112 1.12237,-0.3937061 1.87833,-1.9699781 2.13236,-4.4462792 0.21647,-2.1099872 1.50804,-5.29749452 2.87018,-7.0833505 1.36214,-1.7858549 2.97673,-4.6816166 3.58797,-6.4350254 1.2534,-3.5955119 2.73045,-4.0047899 5.13569,-1.4230498 0.90436,0.9707306 2.81259,2.5743282 4.2405,3.5635517 1.66816,1.1556617 2.51245,2.5977317 2.3619,4.0342053 -0.16235,1.54926094 0.28309,2.19669441 1.45093,2.10883446 1.04261,-0.07843503 1.48218,0.4022839 1.15278,1.26068914 -0.29283,0.7631103 -0.90251,1.3874732 -1.35486,1.3874732 -1.04409,0 -2.67286,5.3066945 -3.30517,10.7685801 -0.47048,4.064029 0.94341,7.668838 3.78068,9.63914 0.58686,0.407534 0.71066,0.74792 0.27512,0.756414 -1.76126,0.03435 1.50941,4.049649 3.29864,4.049649 1.06232,0 2.37425,0.791138 2.91537,1.758087 0.93048,1.662667 1.23429,1.665289 5.59715,0.04831 2.53731,-0.940393 4.61328,-1.277683 4.61328,-0.749545 0,1.862219 1.78913,0.932406 2.3527,-1.222698 0.45331,-1.733455 0.86007,-1.942933 1.97538,-1.017302 0.7725,0.641112 1.66037,0.909825 1.97306,0.597137 0.31269,-0.312687 1.97379,-0.789994 3.69134,-1.060683 1.71755,-0.270689 4.36997,-1.142741 5.89427,-1.937893 1.52429,-0.795153 3.53889,-1.448528 4.47689,-1.451945 0.93799,-0.0034 1.95511,-0.410183 2.26026,-0.903923 0.30515,-0.49375 3.73983,-1.67825 7.63264,-2.63223 3.8928,-0.953981 7.32749,-2.13848 7.63263,-2.63222 0.30515,-0.493741 1.25368,-0.89771 2.10785,-0.89771 2.10354,0 8.2458,-2.862176 11.94337,-5.565387 1.66411,-1.216592 4.8714,-3.151994 7.12733,-4.3008943 2.25592,-1.1488993 4.66604,-2.7689333 5.35583,-3.6000744 3.45411,-4.1619464 20.58657,-11.0887486 29.32362,-11.8557892 20.96611,-1.8406501 25.72387,-1.1686921 35.70335,5.0425257 4.61958,2.8752306 8.72836,2.9431948 33.93479,0.5613284 18.63401,-1.7608096 21.81521,-2.4904299 31.48927,-7.2221622 3.72886,-1.823848 7.35965,-3.317794 8.06841,-3.31988 0.70876,-0.0021 4.01174,-1.361923 7.33996,-3.021861 3.32822,-1.659937 6.53819,-3.019774 7.13327,-3.021861 0.59508,-0.0021 3.99894,-1.426632 7.56414,-3.165657 6.84949,-3.341037 9.44184,-3.614888 17.57623,-1.856728 8.66703,1.873284 20.02051,4.101115 23.72369,4.65517 3.60892,0.539951 8.36882,-3.019908 26.04448,-19.478259 3.703,-3.447976 9.97897,-5.333008 24.86463,-7.468271 4.43763,-0.636552 10.36001,-1.792586 13.16086,-2.568966 4.19928,-1.164015 6.7642,-1.199976 14.62399,-0.205027 16.05643,2.032536 29.16826,1.197026 41.80519,-2.663905 1.10941,-0.338954 7.23636,-1.4867 13.61545,-2.550546 23.22341,-3.872992 37.84296,-6.58609 38.82922,-7.205939 0.84076,-0.528399 11.7485,-2.21754 15.11117,-2.340072 1.26871,-0.04623 2.32675,5.344103 3.65522,18.622073 0.58274,5.824384 1.70448,11.594979 2.49278,12.823545 0.78828,1.228566 1.43324,3.073817 1.43324,4.100557 0,1.026741 1.95999,3.87926 4.35554,6.33893 8.49309,8.720442 23.8839,26.0900962 23.8839,26.9547374 0,0.4826241 1.11292,1.4731193 2.47316,2.2010997 1.36025,0.7279794 2.44112,1.5989049 2.40195,1.9353888 -0.23815,2.0455408 0.34465,3.0019351 1.54793,2.5401981 0.76151,-0.2922219 1.67298,0.28712 2.03321,1.292341 1.09201,3.047207 2.95191,5.645418 7.44094,10.394693 2.35939,2.496165 5.30737,6.010386 6.55105,7.809385 1.2437,1.798993 2.82857,3.273999 3.52195,3.277791 0.69338,0.004 1.26069,0.445397 1.26069,0.981351 0,0.535954 1.54205,2.691733 3.42678,4.790619 1.88472,2.098886 7.86584,9.03541 13.29137,15.414497 5.42553,6.379087 10.1239,11.610191 10.44082,11.624673 1.37718,0.06293 4.50234,2.436136 3.24523,2.464375 -0.8229,0.01846 -0.0657,1.532968 1.90621,3.812738 4.54349,5.252777 15.27404,17.36567 17.14673,19.355613 0.85301,0.906435 5.79232,6.623237 10.9762,12.70401 5.1839,6.08077 10.613,12.25401 12.0645,13.71831 1.4516,1.46429 4.6816,5.6448 7.1777,9.29 2.506,3.65958 5.1031,6.43349 5.7992,6.19412 0.6934,-0.23845 1.2607,-0.0454 1.2607,0.42904 0,0.47443 1.7923,2.84289 3.9829,5.26325 2.1907,2.42036 6.0384,6.6699 8.5505,9.44342 2.5121,2.77352 4.5775,5.53973 4.5897,6.14713 0.012,0.60741 1.0356,1.96895 2.2741,3.02565 1.8332,1.56409 1.9978,1.59314 0.8851,0.15632 -2.3338,-3.0136 -0.075,-1.93795 3.1767,1.51283 1.6989,1.80278 3.2113,4.41241 3.3611,5.79917 0.5685,5.2653 2.4746,16.70367 3.0251,18.15392 1.3029,3.43177 5.4541,20.78974 5.4541,22.80559 0,2.09224 2.3625,10.82163 4.0636,15.01509 0.7197,1.77403 1.2217,4.27634 2.4279,12.10261 0.171,1.10941 0.3688,3.05889 0.4396,4.33218 0.071,1.2733 1.1698,3.31562 2.4421,4.53848 11.0897,10.65818 20.8053,18.76863 28.4658,23.76298 5.0024,3.26138 9.7099,6.67035 10.4611,7.57551 0.7512,0.90515 1.7494,1.64573 2.218,1.64573 0.4688,0 5.01,2.83655 10.0917,6.30345 5.0818,3.46689 12.3235,8.34576 16.0927,10.84192 16.6372,11.0179 36.8019,24.66986 37.2638,25.22842 0.2773,0.3354 3.9081,2.75853 8.0684,5.38475 4.1603,2.6262 8.2856,5.2741 9.1676,5.88418 2.7239,1.88441 10.5659,-1.72855 12.1368,-5.59165 0.709,-1.7438 2.717,-5.43977 4.462,-8.21329 1.7449,-2.77352 3.4549,-6.17738 3.7999,-7.56414 0.345,-1.38675 1.776,-3.74965 3.1801,-5.25088 1.404,-1.50122 2.5529,-3.20315 2.5529,-3.78206 0,-2.45293 3.0037,-0.53149 10.5898,6.77413 4.4376,4.27359 8.4088,7.66472 8.8248,7.53586 0.416,-0.12886 0.7704,0.33302 0.7876,1.0264 0.077,3.10514 14.5135,10.84193 20.2309,10.84193 1.0167,0 3.5392,2.63888 6.0255,6.30344 2.3521,3.4669 5.0017,7.23882 5.8878,8.38204 2.9506,3.80691 15.7874,14.29316 20.3283,16.60607 2.4637,1.25492 5.8839,3.35081 7.6003,4.65754 1.7165,1.30672 3.4406,2.37586 3.8314,2.37586 0.7729,0 12.3557,7.8254 14.4612,9.77005 0.713,0.65855 4.9419,3.7664 9.3975,6.90633 4.4556,3.13995 8.7977,6.77217 9.6491,8.07163 0.8514,1.29947 2.5301,2.50317 3.7303,2.6749 1.2339,0.17653 2.3478,1.18898 2.563,2.32935 0.2092,1.10941 1.9584,3.76739 3.8868,5.90664 l 3.5063,3.88953 -4.8851,2.29752 c -2.6868,1.26365 -6.7005,3.05538 -8.9193,3.98163 -2.2188,0.92627 -5.2388,2.34018 -6.7112,3.14204 -1.4724,0.80187 -3.1724,1.45794 -3.7778,1.45794 -0.6055,0 -4.5397,1.58847 -8.7429,3.52993 -4.2031,1.94146 -8.5166,3.52993 -9.5854,3.52993 -1.069,0 -1.9435,0.45385 -1.9435,1.00855 0,0.55471 -0.6808,1.00856 -1.5128,1.00856 -0.8321,0 -1.5129,0.36452 -1.5129,0.81003 0,0.44552 -3.2496,1.85667 -7.2215,3.13587 -3.9718,1.27922 -9.1649,3.41086 -11.5402,4.737 -2.3754,1.32614 -4.9408,2.41116 -5.701,2.41116 -0.7601,0 -3.6228,1.07222 -6.3614,2.38272 -2.7387,1.3105 -6.7948,3.01244 -9.0136,3.78207 -2.2188,0.76964 -4.6339,1.96666 -5.3669,2.66003 -0.7331,0.69338 -2.2081,1.26069 -3.2778,1.26069 -1.0698,0 -1.9451,0.40465 -1.9451,0.89922 0,0.49457 -1.1147,1.17896 -2.4769,1.52087 -2.0274,0.50886 -5.095,1.64021 -8.6172,3.17811 -0.2773,0.1211 -1.5254,0.55244 -2.7735,0.95855 -1.2481,0.4061 -2.2692,1.09402 -2.2692,1.5287 0,0.43468 -2.264,1.33344 -5.0311,1.99726 -2.7671,0.66381 -6.0792,2.0314 -7.3603,3.03908 -1.281,1.00768 -4.7746,2.63199 -7.7633,3.60959 -2.9889,0.97758 -8.0509,3.04495 -11.249,4.59414 -3.1981,1.54918 -7.0715,3.1321 -8.6073,3.51758 -1.5359,0.38548 -4.201,1.53191 -5.9225,2.54764 -1.7216,1.01571 -5.1389,2.49008 -7.5942,3.27637 -3.9331,1.25961 -14.7906,5.8539 -27.8575,11.78778 -2.3271,1.05675 -4.7227,1.92137 -5.3237,1.92137 -0.6009,0 -3.7898,1.36155 -7.0864,3.02566 -3.2966,1.66411 -6.4855,3.02565 -7.0865,3.02565 -1.0578,0 -6.1808,2.14441 -14.6637,6.13798 -2.2552,1.06174 -4.4038,1.93043 -4.7745,1.93043 -0.3707,0 -3.4848,1.36155 -6.9202,3.02566 -3.4353,1.6641 -6.9724,3.02565 -7.86,3.02565 -0.8877,0 -2.5092,0.5946 -3.6034,1.32133 -1.0941,0.72674 -6.3009,3.06833 -11.5706,5.20353 -5.2697,2.13521 -10.4765,4.49062 -11.5706,5.23425 -1.0942,0.74363 -2.8142,1.35206 -3.8222,1.35206 -1.0081,0 -3.6945,0.94971 -5.9698,2.11047 -4.6725,2.38373 -20.7079,9.15205 -29.065,12.26795 -3.0508,1.13749 -6.4547,2.62867 -7.5641,3.31371 -1.1094,0.68504 -3.8325,1.8097 -6.0513,2.49923 -2.2188,0.68953 -4.9419,1.73882 -6.0513,2.33177 -2.296,1.22713 -21.16562,9.14551 -27.19665,11.4127 -2.19998,0.82702 -6.41152,2.60674 -9.35899,3.95495 -2.94746,1.3482 -5.74964,2.45127 -6.22706,2.45127 -0.47742,0 -3.98129,1.52656 -7.78638,3.39236 -3.8051,1.8658 -8.73375,3.97008 -10.95256,4.67617 -2.21882,0.70609 -6.18999,2.36411 -8.82483,3.68448 -2.63484,1.32038 -4.79062,2.15847 -4.79062,1.86243 0,-0.29604 -2.15948,0.55604 -4.79885,1.89351 -2.63935,1.33747 -8.65284,3.908 -13.3633,5.71231 -4.71045,1.8043 -9.45968,3.89459 -10.55384,4.64509 -1.09414,0.75049 -2.56794,1.36454 -3.27509,1.36454 -0.70715,0 -4.21272,1.38293 -7.79015,3.07318 -3.57743,1.69026 -7.33506,3.23317 -8.35028,3.42867 -1.01521,0.19552 -4.78369,1.79594 -8.37439,3.5565 -3.59071,1.76055 -7.20933,3.34721 -8.04138,3.52589 -0.83206,0.1787 -4.58767,1.73382 -8.34581,3.45584 -3.75814,1.72202 -7.29644,3.13094 -7.8629,3.13094 -0.56647,0 -4.29935,1.51879 -8.2953,3.37508 -3.99595,1.8563 -9.5346,4.20825 -12.30812,5.22656 -2.77351,1.01833 -5.93797,2.44955 -7.03213,3.18051 -1.09415,0.73096 -2.68937,1.32902 -3.54494,1.32902 -0.85556,0 -4.27191,1.32493 -7.59187,2.9443 -3.31996,1.61937 -7.85168,3.60699 -10.07049,4.41693 -2.21882,0.80995 -9.02654,3.61479 -15.12827,6.23298 -6.10174,2.61818 -13.81716,5.80073 -17.14538,7.0723 -7.16191,2.73627 -17.923,7.29694 -25.90557,10.97906 -3.154,1.45484 -6.20888,2.64517 -6.78862,2.64517 -0.57975,0 -3.89923,1.32368 -7.37663,2.9415 -11.49969,5.3501 -22.86876,10.16967 -23.98962,10.16967 -0.60734,0 -3.72911,1.30233 -6.93728,2.89407 -3.20818,1.59175 -7.60774,3.46628 -9.77682,4.16565 -2.16907,0.69936 -4.39762,1.60591 -4.95232,2.01454 -0.5547,0.40864 -3.64472,1.71459 -6.8667,2.90213 -3.22198,1.18754 -8.7627,3.51714 -12.3127,5.17689 -3.55,1.65976 -6.72562,3.01775 -7.05694,3.01775 -0.73595,0 -15.74438,6.29935 -24.6548,10.34814 -3.58319,1.62815 -7.21397,3.09544 -8.06841,3.26065 -0.85444,0.16519 -4.62837,1.70928 -8.38651,3.43129 -8.29457,3.80066 -9.57891,3.8651 -10.84163,0.54391 z M 504.59743,622.99471 c 0.69283,-1.10941 1.09927,-2.0171 0.90318,-2.0171 -0.19608,0 -1.17795,0.90769 -2.18196,2.0171 -1.004,1.10941 -1.41044,2.0171 -0.90318,2.0171 0.50724,0 1.48912,-0.90769 2.18196,-2.0171 z"
       id="path4246"
       inkscape:connector-curvature="0"
       transform="matrix(1.1207577,0,0,1.1207577,-121.98777,336.73929)" />
  </g>
  <g
     inkscape:groupmode="layer"
     id="layer3"
     inkscape:label="Ant">
    <g
       transform="matrix(0.30424619,0.2426101,-0.2426101,0.30424619,350.04141,401.48402)"
       id="layer1-1"
       inkscape:label="Layer 1">
      <ellipse
         transform="matrix(1.075126,0,0,1.0644753,-73.715842,-981.73502)"
         id="path2987"
         style="fill:#000000;fill-opacity:1;stroke:none"
         cx="1024.0421"
         cy="1336.8527"
         rx="192.18156"
         ry="246.47722" />
      <ellipse
         style="fill:#000000;fill-opacity:1;stroke:none"
         id="path3757"
         transform="matrix(0.71345424,0,0,0.75036783,296.65124,-974.72805)"
         cx="1024.0421"
         cy="1336.8527"
         rx="192.18156"
         ry="246.47722" />
      <ellipse
         transform="matrix(0.82647668,0,0,0.67184096,180.91149,-1190.1834)"
         id="path3759"
         style="fill:#000000;fill-opacity:1;stroke:none"
         cx="1024.0421"
         cy="1336.8527"
         rx="192.18156"
         ry="246.47722" />
      <path
         sodipodi:nodetypes="ccc"
         inkscape:connector-curvature="0"
         id="path3761"
         d="m 1090.4922,-421.11559 58.3639,-167.27469 110.5843,-97.32345"
         style="fill:none;stroke:#000000;stroke-width:50;stroke-miterlimit:4;stroke-dasharray:none;stroke-opacity:1" />
      <path
         inkscape:connector-curvature="0"
         id="path3763"
         d="m 1142.7125,-43.987264 168.9483,-72.992556 98.2973,-139.90245"
         style="fill:none;stroke:#000000;stroke-width:50;stroke-linecap:butt;stroke-miterlimit:4;stroke-dasharray:none;stroke-dashoffset:0;stroke-opacity:1" />
      <path
         inkscape:connector-curvature="0"
         id="path3765"
         d="M 1142.7125,16.839939 1311.6608,7.7158959 1471.3939,-19.656343"
         style="fill:none;stroke:#000000;stroke-width:50;stroke-linecap:butt;stroke-miterlimit:4;stroke-dasharray:none;stroke-dashoffset:0;stroke-opacity:1" />
      <path
         inkscape:connector-curvature="0"
         id="path3767"
         d="m 1136.5689,105.03927 172.0201,57.78589 119.7999,115.57157"
         style="fill:none;stroke:#000000;stroke-width:50;stroke-linecap:butt;stroke-miterlimit:4;stroke-dasharray:none;stroke-dashoffset:0;stroke-opacity:1" />
      <path
         style="fill:none;stroke:#000000;stroke-width:50;stroke-miterlimit:4;stroke-dasharray:none;stroke-opacity:1"
         d="M 962.8953,-421.11559 904.53136,-588.39028 793.94702,-685.71373"
         id="path3769"
         inkscape:connector-curvature="0"
         sodipodi:nodetypes="ccc" />
      <path
         style="fill:none;stroke:#000000;stroke-width:50;stroke-linecap:butt;stroke-miterlimit:4;stroke-dasharray:none;stroke-dashoffset:0;stroke-opacity:1"
         d="M 906.11565,-43.987264 737.16729,-116.97982 638.87004,-256.88227"
         id="path3771"
         inkscape:connector-curvature="0" />
      <path
         style="fill:none;stroke:#000000;stroke-width:50;stroke-linecap:butt;stroke-miterlimit:4;stroke-dasharray:none;stroke-dashoffset:0;stroke-opacity:1"
         d="M 906.11565,16.839939 737.16729,7.7158959 577.43421,-19.656343"
         id="path3773"
         inkscape:connector-curvature="0" />
      <path
         style="fill:none;stroke:#000000;stroke-width:50;stroke-linecap:butt;stroke-miterlimit:4;stroke-dasharray:none;stroke-dashoffset:0;stroke-opacity:1"
         d="M 912.2592,105.03927 740.23911,162.82516 620.43925,278.39673"
         id="path3775"
         inkscape:connector-curvature="0" />
    </g>
  </g>
</svg>
